<?xml version="1.0" standalone="no"?>
<!DOCTYPE svg PUBLIC "-//W3C//DTD SVG 1.1//EN"
  "http://www.w3.org/Graphics/SVG/1.1/DTD/svg11.dtd">
<svg width="88mm" height="28mm" viewBox="-51 -87 88 28" xmlns="http://www.w3.org/2000/svg" version="1.1">
	<title>svgOutput</title>
	<desc>made with tinkercad</desc>
<path d="M 26.003000259399414 -86 L 26.003000259399414 -82.99800109863281 L 32.99800109863281 -82.99800109863281 L 32.99800109863281 -76.00299835205078 L 36 -76.00299835205078 L 36 -69.99700164794922 L 32.99800109863281 -69.99700164794922 L 32.99800109863281 -63.00299835205078 L 26.003000259399414 -63.00299835205078 L 26.003000259399414 -60 L 19.996999740600586 -60 L 19.996999740600586 -63.00299835205078 L 10 -63.00299835205078 L 10 -82.99800109863281 L 19.996999740600586 -82.99800109863281 L 19.996999740600586 -86 L 26.003000259399414 -86 M -24 -76.00299835205078 L -27.003000259399414 -76.00299835205078 L -27.003000259399414 -69.99800109863281 L -24 -69.99800109863281 L -24 -60 L -33.99800109863281 -60 L -33.99800109863281 -63.00299835205078 L -40.00299835205078 -63.00299835205078 L -40.00299835205078 -60 L -50 -60 L -50 -69.99800109863281 L -46.99800109863281 -69.99800109863281 L -46.99800109863281 -76.00299835205078 L -50 -76.00299835205078 L -50 -86 L -40.00299835205078 -86 L -40.00299835205078 -82.99800109863281 L -33.99800109863281 -82.99800109863281 L -33.99800109863281 -86 L -24 -86 L -24 -76.00299835205078 M -3.996999979019165 -60 L -3.996999979019165 -63.00299835205078 L -10.003000259399414 -63.00299835205078 L -10.003000259399414 -60 L -20 -60 L -20 -86 L -10.003000259399414 -86 L -10.003000259399414 -82.99800109863281 L -3.996999979019165 -82.99800109863281 L -3.996999979019165 -86 L 2.997999906539917 -86 L 2.997999906539917 -76.00299835205078 L 6 -76.00299835205078 L 6 -69.99700164794922 L 2.997999906539917 -69.99700164794922 L 2.997999906539917 -60 L -3.996999979019165 -60 z" fill="none" stroke="rgb(255,0,0)" stroke-width="0.001mm" />
</svg>