<?xml version="1.0" encoding="UTF-8" standalone="no"?>
<!-- Created with Inkscape (http://www.inkscape.org/) -->

<svg
   xmlns:dc="http://purl.org/dc/elements/1.1/"
   xmlns:cc="http://creativecommons.org/ns#"
   xmlns:rdf="http://www.w3.org/1999/02/22-rdf-syntax-ns#"
   xmlns:svg="http://www.w3.org/2000/svg"
   xmlns="http://www.w3.org/2000/svg"
   xmlns:sodipodi="http://sodipodi.sourceforge.net/DTD/sodipodi-0.dtd"
   xmlns:inkscape="http://www.inkscape.org/namespaces/inkscape"
   width="297mm"
   height="210mm"
   viewBox="0 0 297 210"
   version="1.1"
   id="svg8"
   inkscape:version="0.91 r13725"
   sodipodi:docname="support_capteur_HTU21D.191218.1730.svg">
  <defs
     id="defs2" />
  <sodipodi:namedview
     id="base"
     pagecolor="#ffffff"
     bordercolor="#666666"
     borderopacity="1.0"
     inkscape:pageopacity="0.0"
     inkscape:pageshadow="2"
     inkscape:zoom="1.9957143"
     inkscape:cx="320.74445"
     inkscape:cy="396.85039"
     inkscape:document-units="mm"
     inkscape:current-layer="layer1"
     showgrid="false"
     inkscape:window-width="1366"
     inkscape:window-height="724"
     inkscape:window-x="0"
     inkscape:window-y="1"
     inkscape:window-maximized="0"
     showguides="true"
     inkscape:guide-bbox="true"
     inkscape:snap-global="true"
     inkscape:snap-bbox="true"
     inkscape:snap-bbox-midpoints="true">
    <sodipodi:guide
       position="40,113.21969"
       orientation="1,0"
       id="guide1265"
       inkscape:locked="false"
       inkscape:label=""
       inkscape:color="rgb(0,0,255)" />
    <sodipodi:guide
       position="45.000001,117.72727"
       orientation="1,0"
       id="guide1267"
       inkscape:locked="false"
       inkscape:label=""
       inkscape:color="rgb(0,0,255)" />
    <sodipodi:guide
       position="140,158.82576"
       orientation="1,0"
       id="guide1269"
       inkscape:locked="false"
       inkscape:label=""
       inkscape:color="rgb(0,0,255)" />
    <sodipodi:guide
       position="135,122.32737"
       orientation="1,0"
       id="guide1271"
       inkscape:locked="false"
       inkscape:label=""
       inkscape:color="rgb(0,0,255)" />
    <sodipodi:guide
       position="50.000001,125.30636"
       orientation="0,1"
       id="guide4164" />
    <sodipodi:guide
       position="50.000001,105.30637"
       orientation="0,1"
       id="guide4166" />
    <sodipodi:guide
       position="130,120.30636"
       orientation="0,1"
       id="guide4168" />
    <sodipodi:guide
       position="130,110.30637"
       orientation="0,1"
       id="guide4170" />
  </sodipodi:namedview>
  <metadata
     id="metadata5">
    <rdf:RDF>
      <cc:Work
         rdf:about="">
        <dc:format>image/svg+xml</dc:format>
        <dc:type
           rdf:resource="http://purl.org/dc/dcmitype/StillImage" />
        <dc:title />
      </cc:Work>
    </rdf:RDF>
  </metadata>
  <g
     inkscape:label="Layer 1"
     inkscape:groupmode="layer"
     id="layer1"
     transform="translate(0,-87)">
    <path
       style="fill:none;fill-opacity:1;stroke:#000000;stroke-width:0.53638637;stroke-miterlimit:4;stroke-dasharray:none;stroke-dashoffset:0;stroke-opacity:1"
       d="m 40.268193,164.46183 99.463617,0 0,34.46361 -99.463617,0 z"
       id="rect1088"
       inkscape:connector-curvature="0" />
    <g
       id="g4156"
       transform="translate(-4.9999997,1.75001)">
      <path
         style="fill:none;fill-opacity:1;stroke:#000000;stroke-width:0.29067463;stroke-miterlimit:4;stroke-dasharray:none;stroke-dashoffset:0;stroke-opacity:1"
         d="M 51.604663,169.94363 A 1.6046627,1.6046627 0 0 1 50,171.54829 1.6046627,1.6046627 0 0 1 48.395337,169.94363 1.6046627,1.6046627 0 0 1 50,168.33897 a 1.6046627,1.6046627 0 0 1 1.604663,1.60466 z"
         id="path1128"
         inkscape:connector-curvature="0" />
      <path
         style="fill:none;fill-opacity:1;stroke:#000000;stroke-width:0.29067463;stroke-miterlimit:4;stroke-dasharray:none;stroke-dashoffset:0;stroke-opacity:1"
         d="M 51.604663,189.94362 A 1.6046627,1.6046627 0 0 1 50,191.54828 1.6046627,1.6046627 0 0 1 48.395337,189.94362 1.6046627,1.6046627 0 0 1 50,188.33896 a 1.6046627,1.6046627 0 0 1 1.604663,1.60466 z"
         id="circle1130"
         inkscape:connector-curvature="0" />
    </g>
    <g
       id="g4160"
       transform="translate(4.999998,1.75001)">
      <path
         style="fill:none;fill-opacity:1;stroke:#000000;stroke-width:0.29067463;stroke-miterlimit:4;stroke-dasharray:none;stroke-dashoffset:0;stroke-opacity:1"
         d="M 131.60466,174.94363 A 1.6046627,1.6046627 0 0 1 130,176.54829 1.6046627,1.6046627 0 0 1 128.39534,174.94363 1.6046627,1.6046627 0 0 1 130,173.33897 a 1.6046627,1.6046627 0 0 1 1.60466,1.60466 z"
         id="circle1132"
         inkscape:connector-curvature="0" />
      <path
         style="fill:none;fill-opacity:1;stroke:#000000;stroke-width:0.29067463;stroke-miterlimit:4;stroke-dasharray:none;stroke-dashoffset:0;stroke-opacity:1"
         d="M 131.60466,184.94362 A 1.6046627,1.6046627 0 0 1 130,186.54828 1.6046627,1.6046627 0 0 1 128.39534,184.94362 1.6046627,1.6046627 0 0 1 130,183.33896 a 1.6046627,1.6046627 0 0 1 1.60466,1.60466 z"
         id="circle1134"
         inkscape:connector-curvature="0" />
    </g>
  </g>
</svg>
